HIERARCHY
ROOT joint_Root
{
	OFFSET 0.0 0.0 0.0
	CHANNELS 6 Xposition Yposition Zposition Zrotation Xrotation Yrotation 
	JOINT Hips
	{
		OFFSET 4.5925 91.4895 -427.239
		CHANNELS 6 Xposition Yposition Zposition Zrotation Xrotation Yrotation 
		JOINT Spine
		{
			OFFSET 15.7357 0.0 0.0
			CHANNELS 6 Xposition Yposition Zposition Zrotation Xrotation Yrotation 
			JOINT Chest
			{
				OFFSET 8.98455 -0.406207 0.0
				CHANNELS 6 Xposition Yposition Zposition Zrotation Xrotation Yrotation 
				JOINT Neck
				{
					OFFSET 16.3773 0.0 0.0
					CHANNELS 6 Xposition Yposition Zposition Zrotation Xrotation Yrotation 
					JOINT Head
					{
						OFFSET 6.45672 0.0 0.0
						CHANNELS 6 Xposition Yposition Zposition Zrotation Xrotation Yrotation 
						End Site
						{
							OFFSET 0.0 0.0 0.0
						}
					}
				}
				JOINT Shoulder_L
				{
					OFFSET 12.9942 -0.242716 4.98039
					CHANNELS 6 Xposition Yposition Zposition Zrotation Xrotation Yrotation 
					JOINT UpperArm_L
					{
						OFFSET 5.34809 0.0 0.0
						CHANNELS 6 Xposition Yposition Zposition Zrotation Xrotation Yrotation 
						JOINT LowerArm_L
						{
							OFFSET 24.3286 1.87007e-05 0.0
							CHANNELS 6 Xposition Yposition Zposition Zrotation Xrotation Yrotation 
							JOINT Hand_L
							{
								OFFSET 22.2916 0.0 0.0
								CHANNELS 6 Xposition Yposition Zposition Zrotation Xrotation Yrotation 
								End Site
								{
									OFFSET 0.0 0.0 0.0
								}
							}
						}
					}
				}
				JOINT Shoulder_R
				{
					OFFSET 12.9945 -0.242716 -4.98039
					CHANNELS 6 Xposition Yposition Zposition Zrotation Xrotation Yrotation 
					JOINT UpperArm_R
					{
						OFFSET -5.34813 0.0 0.0
						CHANNELS 6 Xposition Yposition Zposition Zrotation Xrotation Yrotation 
						JOINT LowerArm_R
						{
							OFFSET -24.3289 0.000322201 0.0
							CHANNELS 6 Xposition Yposition Zposition Zrotation Xrotation Yrotation 
							JOINT Hand_R
							{
								OFFSET -22.2915 -0.000108084 0.0
								CHANNELS 6 Xposition Yposition Zposition Zrotation Xrotation Yrotation 
								End Site
								{
									OFFSET 0.0 0.0 0.0
								}
							}
						}
					}
				}
			}
		}
		JOINT UpperLeg_L
		{
			OFFSET -2.19248 -6.46944 0.0
			CHANNELS 6 Xposition Yposition Zposition Zrotation Xrotation Yrotation 
			JOINT LowerLeg_L
			{
				OFFSET 39.0811 0.0 -1.23785e-05
				CHANNELS 6 Xposition Yposition Zposition Zrotation Xrotation Yrotation 
				JOINT Foot_L
				{
					OFFSET 40.9854 0.0 -1.26872e-05
					CHANNELS 6 Xposition Yposition Zposition Zrotation Xrotation Yrotation 
					JOINT Toes_L
					{
						OFFSET 11.7543 0.0 0.0
						CHANNELS 6 Xposition Yposition Zposition Zrotation Xrotation Yrotation 
						End Site
						{
							OFFSET 0.0 0.0 0.0
						}
					}
				}
			}
		}
		JOINT UpperLeg_R
		{
			OFFSET -2.19251 6.46944 0.0
			CHANNELS 6 Xposition Yposition Zposition Zrotation Xrotation Yrotation 
			JOINT LowerLeg_R
			{
				OFFSET -39.0811 -0.00228153 -0.0401928
				CHANNELS 6 Xposition Yposition Zposition Zrotation Xrotation Yrotation 
				JOINT Foot_R
				{
					OFFSET -40.9854 0.0 0.0
					CHANNELS 6 Xposition Yposition Zposition Zrotation Xrotation Yrotation 
					JOINT Toes_R
					{
						OFFSET -11.7543 0.0 0.0
						CHANNELS 6 Xposition Yposition Zposition Zrotation Xrotation Yrotation 
						End Site
						{
							OFFSET 0.0 0.0 0.0
						}
					}
				}
			}
		}
	}
}
MOTION
Frames:	8
Frame Time:	0.0333333
0.000000 0.000000 0.000000 0.000000 0.000000 -0.000000 -2.096650 89.938600 5.761280 89.178500 -2.638730 9.282360 15.735700 0.000005 -0.000001 80.397300 86.895000 -80.719900 8.984550 -0.406207 -0.000000 -1.645850 -1.009200 -0.659444 16.377300 -0.000001 -0.000001 10.355600 -3.456290 2.944660 6.456720 -0.000001 -0.000000 3.993690 -4.401570 1.624310 12.994200 -0.242716 4.980390 -86.747100 -6.174100 -62.145800 5.348090 -0.000007 -0.000001 -32.919200 -49.564200 -37.356300 24.328600 0.000019 0.000005 6.466150 8.371400 -37.899400 22.291600 -0.000001 0.000005 14.409900 4.956840 8.225260 12.994500 -0.242716 -4.980390 91.238800 -3.442210 -70.192600 -5.348130 -0.000001 -0.000004 -47.537300 -55.511600 -51.474700 -24.328900 0.000322 -0.000009 -12.310200 -14.982300 -40.165400 -22.291500 -0.000108 -0.000004 22.078900 5.121820 4.612910 -2.192480 -6.469440 -0.000000 -173.066000 -10.402600 3.192170 39.081100 -0.000007 -0.000012 -0.226363 0.371614 31.347400 40.985400 -0.000006 -0.000013 -0.526448 6.648440 -74.897900 11.754300 -0.000000 0.000003 -0.000040 -0.000465 -16.595700 -2.192510 6.469440 -0.000001 175.723000 16.366900 -175.976000 -39.081100 -0.002282 -0.040193 0.010670 -0.012221 31.093300 -40.985400 0.000008 0.000006 7.328560 10.384500 -76.505400 -11.754300 -0.000006 -0.000006 -0.002093 -0.029871 -17.787800
0.000000 0.000000 0.000000 0.000000 0.000000 -0.000000 -2.134530 89.863400 6.154940 89.210800 -2.330030 9.857990 15.735700 0.000005 -0.000001 81.785600 86.973800 -82.179800 8.984550 -0.406207 -0.000000 -1.778590 -0.831713 -0.801100 16.377300 -0.000001 -0.000001 11.285500 -3.338740 2.691770 6.456720 -0.000001 -0.000000 4.961910 -4.260690 1.361330 12.994200 -0.242716 4.980390 -86.288400 -7.031260 -62.079100 5.348090 -0.000007 -0.000001 -37.393800 -50.998900 -46.625200 24.328600 0.000019 0.000005 6.882310 7.911510 -41.250500 22.291600 -0.000001 0.000005 17.595200 4.986810 7.610170 12.994500 -0.242716 -4.980390 91.528100 -4.193930 -69.959600 -5.348130 -0.000001 -0.000004 -52.795100 -56.170500 -59.806000 -24.328900 0.000322 -0.000009 -12.880900 -13.204200 -45.035400 -22.291500 -0.000108 -0.000004 23.481100 5.188260 3.010810 -2.192480 -6.469440 -0.000000 -173.112000 -9.670300 4.000950 39.081100 -0.000007 -0.000012 -0.231351 0.379686 31.355200 40.985400 -0.000006 -0.000013 -0.660802 6.298350 -75.187800 11.754300 -0.000000 0.000003 -0.000038 -0.000444 -16.594800 -2.192510 6.469440 -0.000001 175.456000 16.387900 -175.076000 -39.081100 -0.002282 -0.040193 0.009971 -0.011029 31.168500 -40.985400 0.000008 0.000006 7.220460 10.192300 -76.732800 -11.754300 -0.000006 -0.000006 -0.001953 -0.028130 -17.716900
0.000000 0.000000 0.000000 0.000000 0.000000 -0.000000 -2.165520 89.806100 6.424000 89.269800 -1.982530 10.254700 15.735700 0.000005 -0.000001 83.586700 87.247300 -84.079800 8.984550 -0.406207 -0.000000 -2.297310 -0.571488 -0.997599 16.377300 -0.000001 -0.000001 12.255300 -3.570400 2.868200 6.456720 -0.000001 -0.000000 5.797070 -4.640140 1.357900 12.994200 -0.242716 4.980390 -85.423900 -8.621320 -61.901200 5.348090 -0.000007 -0.000001 -39.905300 -51.024200 -57.342900 24.328600 0.000019 0.000005 7.171350 6.345700 -48.703900 22.291600 -0.000001 0.000005 20.323300 5.050890 6.222860 12.994500 -0.242716 -4.980390 92.062800 -5.584400 -69.688500 -5.348130 -0.000001 -0.000004 -55.232100 -55.463900 -68.672500 -24.328900 0.000322 -0.000009 -12.916400 -9.749900 -53.564800 -22.291500 -0.000108 -0.000004 24.050500 5.297640 0.145087 -2.192480 -6.469440 -0.000000 -173.197000 -9.095680 4.517820 39.081100 -0.000007 -0.000012 -0.233538 0.382886 31.381100 40.985400 -0.000006 -0.000013 -0.727833 6.134080 -75.382600 11.754300 -0.000000 0.000003 -0.000049 -0.000553 -16.599000 -2.192510 6.469440 -0.000001 175.266000 16.390900 -174.674000 -39.081100 -0.002282 -0.040193 0.011861 -0.013933 31.573300 -40.985400 0.000008 0.000006 7.181790 9.944780 -76.708600 -11.754300 -0.000006 -0.000006 -0.002066 -0.029543 -17.774400
0.000000 0.000000 0.000000 0.000000 0.000000 -0.000000 -2.176460 89.760800 6.574400 89.346400 -1.626260 10.351600 15.735700 0.000005 -0.000001 83.526600 87.547100 -84.101000 8.984550 -0.406207 -0.000000 -2.893800 -0.499457 -1.161420 16.377300 -0.000001 -0.000001 12.893800 -3.798970 3.126480 6.456720 -0.000001 -0.000000 6.524380 -4.954990 1.380970 12.994200 -0.242716 4.980390 -84.478200 -10.185000 -61.334200 5.348090 -0.000007 -0.000001 -40.347000 -51.454100 -67.722500 24.328600 0.000019 0.000005 8.371340 5.150610 -58.601900 22.291600 -0.000001 0.000005 21.463300 5.138040 4.233540 12.994500 -0.242716 -4.980390 92.726700 -7.231460 -69.276600 -5.348130 -0.000001 -0.000004 -56.306700 -54.341900 -78.546300 -24.328900 0.000322 -0.000009 -10.373300 -5.308740 -63.213400 -22.291500 -0.000108 -0.000004 25.558900 5.391780 -2.650970 -2.192480 -6.469440 -0.000000 -173.051000 -9.419760 4.652670 39.081100 -0.000007 -0.000012 -0.232618 0.380070 31.468700 40.985400 -0.000006 -0.000013 -0.530353 6.863710 -75.499500 11.754300 -0.000000 0.000003 -0.000042 -0.000481 -16.596300 -2.192510 6.469440 -0.000001 175.075000 16.650900 -174.634000 -39.081100 -0.002282 -0.040193 0.013047 -0.015629 31.954700 -40.985400 0.000008 0.000006 7.209730 9.882120 -76.715100 -11.754300 -0.000006 -0.000006 -0.002060 -0.029471 -17.771500
0.000000 0.000000 0.000000 0.000000 0.000000 -0.000000 -2.189010 89.799500 6.561400 89.343100 -1.350360 10.027300 15.735700 0.000005 -0.000001 84.044100 87.801300 -84.639600 8.984550 -0.406207 -0.000000 -3.394190 -0.398091 -1.202910 16.377300 -0.000001 -0.000001 12.853200 -4.058510 3.247210 6.456720 -0.000001 -0.000000 6.800040 -5.598960 1.328490 12.994200 -0.242716 4.980390 -83.527000 -11.703200 -60.780000 5.348090 -0.000007 -0.000001 -38.291000 -53.293700 -74.563700 24.328600 0.000019 0.000005 11.719100 5.121490 -66.706900 22.291600 -0.000001 0.000005 24.409200 5.248650 1.489590 12.994500 -0.242716 -4.980390 93.551900 -8.904260 -68.149400 -5.348130 -0.000001 -0.000004 -52.097400 -54.722200 -84.443500 -24.328900 0.000322 -0.000009 -7.377200 -2.593720 -70.731500 -22.291500 -0.000108 -0.000004 29.399100 5.493890 -6.232470 -2.192480 -6.469440 -0.000000 -173.019000 -9.568540 4.340800 39.081100 -0.000007 -0.000012 -0.229327 0.376712 31.331800 40.985400 -0.000006 -0.000013 -0.448116 7.218800 -75.380400 11.754300 -0.000000 0.000003 -0.000043 -0.000497 -16.596900 -2.192510 6.469440 -0.000001 175.225000 16.729800 -174.936000 -39.081100 -0.002282 -0.040193 0.014246 -0.017617 31.858700 -40.985400 0.000008 0.000006 7.164770 9.658560 -76.532600 -11.754300 -0.000006 -0.000006 -0.002070 -0.029587 -17.776200
0.000000 0.000000 0.000000 0.000000 0.000000 -0.000000 -2.162610 89.989600 6.397020 89.335900 -1.203090 8.607370 15.735700 0.000005 -0.000001 86.537900 88.254000 -87.165600 8.984550 -0.406207 -0.000000 -4.280870 -0.144753 -1.261640 16.377300 -0.000001 -0.000001 12.454900 -4.059820 3.206640 6.456720 -0.000001 -0.000000 6.571080 -5.838500 1.563090 12.994200 -0.242716 4.980390 -82.799500 -12.443200 -59.615400 5.348090 -0.000007 -0.000001 -40.430300 -53.786300 -81.494800 24.328600 0.000019 0.000005 13.838100 5.989350 -67.039200 22.291600 -0.000001 0.000005 26.442200 5.264330 1.054290 12.994500 -0.242716 -4.980390 94.195000 -9.668000 -66.406200 -5.348130 -0.000001 -0.000004 -45.418600 -55.866600 -84.612100 -24.328900 0.000322 -0.000009 -7.269460 -2.258970 -72.824100 -22.291500 -0.000108 -0.000004 31.426500 5.551600 -8.780330 -2.192480 -6.469440 -0.000000 -173.430000 -9.307460 3.060970 39.081100 -0.000007 -0.000012 -0.218903 0.370214 30.595700 40.985400 -0.000006 -0.000013 -0.544422 6.922470 -74.837200 11.754300 -0.000000 0.000003 -0.000040 -0.000466 -16.595700 -2.192510 6.469440 -0.000001 175.713000 16.913000 -176.293000 -39.081100 -0.002282 -0.040193 0.014528 -0.018518 31.232400 -40.985400 0.000008 0.000006 7.046590 9.600990 -75.885500 -11.754300 -0.000006 -0.000006 -0.002187 -0.031030 -17.834900
0.000000 0.000000 0.000000 0.000000 0.000000 -0.000000 -2.179010 90.152500 6.460800 89.307100 -1.186690 8.027450 15.735700 0.000005 -0.000001 82.188100 88.504400 -82.826500 8.984550 -0.406207 -0.000000 -4.804280 -0.336178 -1.291860 16.377300 -0.000001 -0.000001 12.170300 -3.930560 3.080170 6.456720 -0.000001 -0.000000 6.364060 -5.479160 1.704690 12.994200 -0.242716 4.980390 -82.809400 -12.324000 -59.412900 5.348090 -0.000007 -0.000001 -40.706000 -53.440100 -80.670400 24.328600 0.000019 0.000005 10.538000 6.011970 -60.611300 22.291600 -0.000001 0.000005 23.256400 5.215770 2.338720 12.994500 -0.242716 -4.980390 94.036500 -9.022090 -65.772600 -5.348130 -0.000001 -0.000004 -42.553800 -54.239100 -81.386900 -24.328900 0.000322 -0.000009 -8.549330 -3.499170 -67.919100 -22.291500 -0.000108 -0.000004 27.274000 5.508860 -6.841700 -2.192480 -6.469440 -0.000000 -173.359000 -9.709020 2.979620 39.081100 -0.000007 -0.000012 -0.213199 0.373951 29.688900 40.985400 -0.000006 -0.000013 -0.517458 7.306430 -74.405200 11.754300 -0.000000 0.000003 -0.000036 -0.000422 -16.594000 -2.192510 6.469440 -0.000001 175.783000 17.347900 -176.473000 -39.081100 -0.002282 -0.040193 0.013484 -0.017301 30.480100 -40.985400 0.000008 0.000006 7.112910 10.042900 -75.406800 -11.754300 -0.000006 -0.000006 -0.002248 -0.031782 -17.865500
0.000000 0.000000 0.000000 0.000000 0.000000 -0.000000 -2.138190 90.226600 6.490770 89.326600 -1.708050 7.953120 15.735700 0.000005 -0.000001 76.738800 88.337600 -77.345600 8.984550 -0.406207 -0.000000 -4.533400 -0.696966 -1.241830 16.377300 -0.000001 -0.000001 11.126100 -3.982720 2.842810 6.456720 -0.000001 -0.000000 5.882770 -5.387660 1.756790 12.994200 -0.242716 4.980390 -83.465400 -11.395900 -59.898200 5.348090 -0.000007 -0.000001 -36.414600 -53.442000 -70.761700 24.328600 0.000019 0.000005 8.914260 7.024210 -52.054600 22.291600 -0.000001 0.000005 20.062100 5.129180 4.445070 12.994500 -0.242716 -4.980390 93.328600 -7.899260 -67.063700 -5.348130 -0.000001 -0.000004 -41.171800 -52.671600 -73.308200 -24.328900 0.000322 -0.000009 -11.577700 -7.047260 -59.100700 -22.291500 -0.000108 -0.000004 24.885600 5.420580 -3.624080 -2.192480 -6.469440 -0.000000 -173.333000 -10.260500 3.271450 39.081100 -0.000007 -0.000012 -0.206103 0.368799 29.198900 40.985400 -0.000006 -0.000013 -0.504191 7.328030 -74.224300 11.754300 -0.000000 0.000003 -0.000027 -0.000324 -16.590200 -2.192510 6.469440 -0.000001 175.641000 17.390700 -176.321000 -39.081100 -0.002282 -0.040193 0.011085 -0.013465 30.029100 -40.985400 0.000008 0.000006 7.151790 10.636500 -75.305700 -11.754300 -0.000006 -0.000006 -0.002352 -0.033033 -17.916400
